<svg width="575" height="468" viewBox="0 0 575 468" fill="none" xmlns="http://www.w3.org/2000/svg">
    <path d="M389.069 138.061C427.125 138.061 457.976 107.155 457.976 69.0306C457.976 30.9061 427.125 0 389.069 0C351.012 0 320.161 30.9061 320.161 69.0306C320.161 107.155 351.012 138.061 389.069 138.061Z" fill="#EFEFEF"/>
    <path d="M231.84 55.6171C241.14 55.6171 248.679 48.0644 248.679 38.7475C248.679 29.4307 241.14 21.8779 231.84 21.8779C222.539 21.8779 215 29.4307 215 38.7475C215 48.0644 222.539 55.6171 231.84 55.6171Z" fill="#EFEFEF"/>
    <path d="M69 126.152H517.329V382.72C517.329 400.486 502.929 414.912 485.195 414.912H101.134C83.3996 414.912 69 400.486 69 382.72V126.152Z" fill="#EFEFEF"/>
    <path d="M517.324 108.725V148H69V108.725C69 97.6629 76.4625 88.6929 85.666 88.6929H500.663C509.866 88.6929 517.329 97.6629 517.329 108.725H517.324Z" fill="#FDB933"/>
    <path d="M517.324 109.586V148H69V138.833C130.966 140.823 405.249 147.255 517.329 109.586H517.324Z" fill="#F99D33"/>
    <path d="M108.356 127.107C113.186 127.107 117.101 123.185 117.101 118.346C117.101 113.508 113.186 109.586 108.356 109.586C103.527 109.586 99.6113 113.508 99.6113 118.346C99.6113 123.185 103.527 127.107 108.356 127.107Z" fill="white"/>
    <path d="M142.935 127.107C147.764 127.107 151.68 123.185 151.68 118.346C151.68 113.508 147.764 109.586 142.935 109.586C138.105 109.586 134.19 113.508 134.19 118.346C134.19 123.185 138.105 127.107 142.935 127.107Z" fill="white"/>
    <path d="M177.513 127.107C182.343 127.107 186.258 123.185 186.258 118.346C186.258 113.508 182.343 109.586 177.513 109.586C172.684 109.586 168.769 113.508 168.769 118.346C168.769 123.185 172.684 127.107 177.513 127.107Z" fill="white"/>
    <path d="M318.829 345.417H267.495C261.994 345.417 257.535 349.884 257.535 355.395V357.38C257.535 362.891 261.994 367.358 267.495 367.358H318.829C324.33 367.358 328.789 362.891 328.789 357.38V355.395C328.789 349.884 324.33 345.417 318.829 345.417Z" fill="#D2D2D2"/>
    <path d="M315.049 354.36H269.987C268.868 354.36 267.96 355.268 267.96 356.387C267.96 357.507 268.868 358.414 269.987 358.414H315.049C316.169 358.414 317.076 357.507 317.076 356.387C317.076 355.268 316.169 354.36 315.049 354.36Z" fill="white"/>
    <path d="M205.484 307V298.273H210.751V299.21H206.54V302.159H210.478V303.097H206.54V306.062H210.819V307H205.484ZM212.519 307V300.455H213.491V301.443H213.559C213.678 301.119 213.894 300.857 214.207 300.655C214.519 300.453 214.871 300.352 215.263 300.352C215.337 300.352 215.43 300.354 215.54 300.357C215.651 300.359 215.735 300.364 215.792 300.369V301.392C215.758 301.384 215.68 301.371 215.557 301.354C215.438 301.334 215.312 301.324 215.178 301.324C214.86 301.324 214.576 301.391 214.326 301.524C214.079 301.655 213.883 301.837 213.738 302.07C213.596 302.3 213.525 302.562 213.525 302.858V307H212.519ZM216.984 307V300.455H217.956V301.443H218.024C218.143 301.119 218.359 300.857 218.671 300.655C218.984 300.453 219.336 300.352 219.728 300.352C219.802 300.352 219.894 300.354 220.005 300.357C220.116 300.359 220.2 300.364 220.257 300.369V301.392C220.223 301.384 220.144 301.371 220.022 301.354C219.903 301.334 219.777 301.324 219.643 301.324C219.325 301.324 219.041 301.391 218.791 301.524C218.544 301.655 218.348 301.837 218.203 302.07C218.061 302.3 217.99 302.562 217.99 302.858V307H216.984ZM223.909 307.136C223.318 307.136 222.799 306.996 222.353 306.714C221.91 306.433 221.563 306.04 221.313 305.534C221.066 305.028 220.943 304.437 220.943 303.761C220.943 303.08 221.066 302.484 221.313 301.976C221.563 301.467 221.91 301.072 222.353 300.791C222.799 300.51 223.318 300.369 223.909 300.369C224.5 300.369 225.017 300.51 225.46 300.791C225.906 301.072 226.252 301.467 226.5 301.976C226.75 302.484 226.875 303.08 226.875 303.761C226.875 304.437 226.75 305.028 226.5 305.534C226.252 306.04 225.906 306.433 225.46 306.714C225.017 306.996 224.5 307.136 223.909 307.136ZM223.909 306.233C224.358 306.233 224.727 306.118 225.017 305.888C225.306 305.658 225.521 305.355 225.66 304.98C225.799 304.605 225.869 304.199 225.869 303.761C225.869 303.324 225.799 302.916 225.66 302.538C225.521 302.161 225.306 301.855 225.017 301.622C224.727 301.389 224.358 301.273 223.909 301.273C223.46 301.273 223.09 301.389 222.801 301.622C222.511 301.855 222.296 302.161 222.157 302.538C222.018 302.916 221.948 303.324 221.948 303.761C221.948 304.199 222.018 304.605 222.157 304.98C222.296 305.355 222.511 305.658 222.801 305.888C223.09 306.118 223.46 306.233 223.909 306.233ZM228.41 307V300.455H229.381V301.443H229.449C229.569 301.119 229.785 300.857 230.097 300.655C230.41 300.453 230.762 300.352 231.154 300.352C231.228 300.352 231.32 300.354 231.431 300.357C231.542 300.359 231.626 300.364 231.682 300.369V301.392C231.648 301.384 231.57 301.371 231.448 301.354C231.329 301.334 231.202 301.324 231.069 301.324C230.751 301.324 230.467 301.391 230.217 301.524C229.969 301.655 229.773 301.837 229.628 302.07C229.486 302.3 229.415 302.562 229.415 302.858V307H228.41ZM234.204 298.273L234.119 304.545H233.13L233.045 298.273H234.204ZM233.625 307.068C233.414 307.068 233.234 306.993 233.083 306.842C232.933 306.692 232.858 306.511 232.858 306.301C232.858 306.091 232.933 305.911 233.083 305.76C233.234 305.609 233.414 305.534 233.625 305.534C233.835 305.534 234.015 305.609 234.166 305.76C234.316 305.911 234.392 306.091 234.392 306.301C234.392 306.44 234.356 306.568 234.285 306.685C234.217 306.801 234.125 306.895 234.008 306.966C233.894 307.034 233.767 307.068 233.625 307.068ZM239.726 307V298.273H242.675C243.359 298.273 243.919 298.396 244.354 298.643C244.791 298.888 245.115 299.219 245.325 299.636C245.535 300.054 245.641 300.52 245.641 301.034C245.641 301.548 245.535 302.016 245.325 302.436C245.118 302.857 244.797 303.192 244.362 303.442C243.927 303.689 243.371 303.812 242.692 303.812H240.578V302.875H242.658C243.126 302.875 243.503 302.794 243.787 302.632C244.071 302.47 244.277 302.251 244.405 301.976C244.535 301.697 244.601 301.384 244.601 301.034C244.601 300.685 244.535 300.372 244.405 300.097C244.277 299.821 244.07 299.605 243.783 299.449C243.496 299.29 243.115 299.21 242.641 299.21H240.783V307H239.726ZM248.212 298.273V307H247.207V298.273H248.212ZM252.799 307.136C252.168 307.136 251.624 306.997 251.166 306.719C250.712 306.438 250.361 306.045 250.114 305.543C249.87 305.037 249.747 304.449 249.747 303.778C249.747 303.108 249.87 302.517 250.114 302.006C250.361 301.491 250.705 301.091 251.145 300.804C251.588 300.514 252.105 300.369 252.696 300.369C253.037 300.369 253.374 300.426 253.706 300.54C254.039 300.653 254.341 300.838 254.614 301.094C254.887 301.347 255.104 301.682 255.266 302.099C255.428 302.517 255.509 303.031 255.509 303.642V304.068H250.463V303.199H254.486C254.486 302.83 254.412 302.5 254.264 302.21C254.12 301.92 253.912 301.692 253.642 301.524C253.375 301.357 253.06 301.273 252.696 301.273C252.296 301.273 251.949 301.372 251.657 301.571C251.367 301.767 251.144 302.023 250.987 302.338C250.831 302.653 250.753 302.991 250.753 303.352V303.932C250.753 304.426 250.838 304.845 251.009 305.189C251.182 305.53 251.422 305.79 251.729 305.969C252.036 306.145 252.392 306.233 252.799 306.233C253.063 306.233 253.301 306.196 253.514 306.122C253.73 306.045 253.916 305.932 254.073 305.781C254.229 305.628 254.35 305.437 254.435 305.21L255.407 305.483C255.304 305.812 255.132 306.102 254.891 306.352C254.649 306.599 254.351 306.793 253.996 306.932C253.641 307.068 253.242 307.136 252.799 307.136ZM258.965 307.153C258.55 307.153 258.174 307.075 257.835 306.919C257.497 306.76 257.229 306.531 257.03 306.233C256.831 305.932 256.732 305.568 256.732 305.142C256.732 304.767 256.806 304.463 256.953 304.23C257.101 303.994 257.299 303.81 257.546 303.676C257.793 303.543 258.066 303.443 258.364 303.378C258.665 303.31 258.968 303.256 259.272 303.216C259.669 303.165 259.992 303.126 260.239 303.101C260.489 303.072 260.671 303.026 260.784 302.96C260.901 302.895 260.959 302.781 260.959 302.619V302.585C260.959 302.165 260.844 301.838 260.614 301.605C260.387 301.372 260.041 301.256 259.578 301.256C259.098 301.256 258.722 301.361 258.449 301.571C258.176 301.781 257.985 302.006 257.874 302.244L256.919 301.903C257.09 301.506 257.317 301.196 257.601 300.974C257.888 300.75 258.201 300.594 258.539 300.506C258.88 300.415 259.215 300.369 259.544 300.369C259.755 300.369 259.996 300.395 260.269 300.446C260.544 300.494 260.81 300.595 261.066 300.749C261.324 300.902 261.539 301.134 261.709 301.443C261.88 301.753 261.965 302.168 261.965 302.688V307H260.959V306.114H260.908C260.84 306.256 260.726 306.408 260.567 306.57C260.408 306.732 260.196 306.869 259.932 306.983C259.668 307.097 259.345 307.153 258.965 307.153ZM259.118 306.25C259.516 306.25 259.851 306.172 260.124 306.016C260.399 305.859 260.607 305.658 260.746 305.411C260.888 305.163 260.959 304.903 260.959 304.631V303.71C260.916 303.761 260.823 303.808 260.678 303.851C260.536 303.891 260.371 303.926 260.184 303.957C259.999 303.986 259.818 304.011 259.642 304.034C259.469 304.054 259.328 304.071 259.22 304.085C258.959 304.119 258.715 304.175 258.487 304.251C258.263 304.325 258.081 304.437 257.942 304.588C257.806 304.736 257.737 304.937 257.737 305.193C257.737 305.543 257.867 305.807 258.125 305.986C258.387 306.162 258.718 306.25 259.118 306.25ZM268.437 301.92L267.533 302.176C267.476 302.026 267.393 301.879 267.282 301.737C267.174 301.592 267.026 301.473 266.839 301.379C266.651 301.286 266.411 301.239 266.119 301.239C265.718 301.239 265.384 301.331 265.117 301.516C264.853 301.697 264.721 301.929 264.721 302.21C264.721 302.46 264.812 302.658 264.994 302.803C265.175 302.947 265.459 303.068 265.846 303.165L266.817 303.403C267.403 303.545 267.839 303.763 268.126 304.055C268.413 304.345 268.556 304.719 268.556 305.176C268.556 305.551 268.448 305.886 268.232 306.182C268.019 306.477 267.721 306.71 267.337 306.881C266.954 307.051 266.508 307.136 265.999 307.136C265.332 307.136 264.779 306.991 264.342 306.702C263.904 306.412 263.627 305.989 263.511 305.432L264.465 305.193C264.556 305.545 264.728 305.81 264.981 305.986C265.236 306.162 265.57 306.25 265.982 306.25C266.451 306.25 266.823 306.151 267.099 305.952C267.377 305.75 267.516 305.509 267.516 305.227C267.516 305 267.437 304.81 267.278 304.656C267.119 304.5 266.874 304.384 266.545 304.307L265.454 304.051C264.854 303.909 264.414 303.689 264.133 303.391C263.854 303.089 263.715 302.713 263.715 302.261C263.715 301.892 263.819 301.565 264.026 301.281C264.236 300.997 264.522 300.774 264.883 300.612C265.246 300.45 265.658 300.369 266.119 300.369C266.766 300.369 267.275 300.511 267.644 300.795C268.016 301.08 268.28 301.455 268.437 301.92ZM272.814 307.136C272.184 307.136 271.639 306.997 271.182 306.719C270.728 306.438 270.377 306.045 270.13 305.543C269.885 305.037 269.763 304.449 269.763 303.778C269.763 303.108 269.885 302.517 270.13 302.006C270.377 301.491 270.72 301.091 271.161 300.804C271.604 300.514 272.121 300.369 272.712 300.369C273.053 300.369 273.389 300.426 273.722 300.54C274.054 300.653 274.357 300.838 274.63 301.094C274.902 301.347 275.12 301.682 275.282 302.099C275.443 302.517 275.524 303.031 275.524 303.642V304.068H270.479V303.199H274.502C274.502 302.83 274.428 302.5 274.28 302.21C274.135 301.92 273.928 301.692 273.658 301.524C273.391 301.357 273.076 301.273 272.712 301.273C272.311 301.273 271.965 301.372 271.672 301.571C271.382 301.767 271.159 302.023 271.003 302.338C270.847 302.653 270.769 302.991 270.769 303.352V303.932C270.769 304.426 270.854 304.845 271.024 305.189C271.198 305.53 271.438 305.79 271.745 305.969C272.051 306.145 272.408 306.233 272.814 306.233C273.078 306.233 273.317 306.196 273.53 306.122C273.746 306.045 273.932 305.932 274.088 305.781C274.245 305.628 274.365 305.437 274.451 305.21L275.422 305.483C275.32 305.812 275.148 306.102 274.907 306.352C274.665 306.599 274.367 306.793 274.012 306.932C273.657 307.068 273.257 307.136 272.814 307.136ZM283.088 307.136C282.475 307.136 281.946 306.991 281.503 306.702C281.06 306.412 280.719 306.013 280.48 305.504C280.242 304.996 280.122 304.415 280.122 303.761C280.122 303.097 280.245 302.51 280.489 302.001C280.736 301.49 281.08 301.091 281.52 300.804C281.963 300.514 282.48 300.369 283.071 300.369C283.532 300.369 283.946 300.455 284.316 300.625C284.685 300.795 284.987 301.034 285.223 301.341C285.459 301.648 285.605 302.006 285.662 302.415H284.657C284.58 302.116 284.409 301.852 284.145 301.622C283.884 301.389 283.532 301.273 283.088 301.273C282.696 301.273 282.353 301.375 282.057 301.58C281.764 301.781 281.536 302.067 281.371 302.436C281.209 302.803 281.128 303.233 281.128 303.727C281.128 304.233 281.208 304.673 281.367 305.048C281.529 305.423 281.756 305.714 282.049 305.922C282.344 306.129 282.691 306.233 283.088 306.233C283.35 306.233 283.587 306.188 283.8 306.097C284.013 306.006 284.193 305.875 284.341 305.705C284.489 305.534 284.594 305.33 284.657 305.091H285.662C285.605 305.477 285.465 305.825 285.24 306.135C285.019 306.442 284.725 306.686 284.358 306.868C283.995 307.047 283.571 307.136 283.088 307.136ZM289.791 307.136C289.201 307.136 288.682 306.996 288.236 306.714C287.793 306.433 287.446 306.04 287.196 305.534C286.949 305.028 286.826 304.437 286.826 303.761C286.826 303.08 286.949 302.484 287.196 301.976C287.446 301.467 287.793 301.072 288.236 300.791C288.682 300.51 289.201 300.369 289.791 300.369C290.382 300.369 290.899 300.51 291.343 300.791C291.789 301.072 292.135 301.467 292.382 301.976C292.632 302.484 292.757 303.08 292.757 303.761C292.757 304.437 292.632 305.028 292.382 305.534C292.135 306.04 291.789 306.433 291.343 306.714C290.899 306.996 290.382 307.136 289.791 307.136ZM289.791 306.233C290.24 306.233 290.61 306.118 290.899 305.888C291.189 305.658 291.404 305.355 291.543 304.98C291.682 304.605 291.752 304.199 291.752 303.761C291.752 303.324 291.682 302.916 291.543 302.538C291.404 302.161 291.189 301.855 290.899 301.622C290.61 301.389 290.24 301.273 289.791 301.273C289.343 301.273 288.973 301.389 288.684 301.622C288.394 301.855 288.179 302.161 288.04 302.538C287.901 302.916 287.831 303.324 287.831 303.761C287.831 304.199 287.901 304.605 288.04 304.98C288.179 305.355 288.394 305.658 288.684 305.888C288.973 306.118 289.343 306.233 289.791 306.233ZM294.293 307V300.455H295.264V301.477H295.349C295.486 301.128 295.706 300.857 296.01 300.663C296.314 300.467 296.679 300.369 297.105 300.369C297.537 300.369 297.896 300.467 298.183 300.663C298.473 300.857 298.699 301.128 298.861 301.477H298.929C299.097 301.139 299.348 300.871 299.683 300.672C300.018 300.47 300.42 300.369 300.889 300.369C301.474 300.369 301.953 300.553 302.325 300.919C302.697 301.283 302.883 301.849 302.883 302.619V307H301.878V302.619C301.878 302.136 301.746 301.791 301.481 301.584C301.217 301.376 300.906 301.273 300.548 301.273C300.088 301.273 299.731 301.412 299.479 301.69C299.226 301.966 299.099 302.315 299.099 302.739V307H298.077V302.517C298.077 302.145 297.956 301.845 297.714 301.618C297.473 301.388 297.162 301.273 296.781 301.273C296.52 301.273 296.275 301.342 296.048 301.482C295.824 301.621 295.642 301.814 295.503 302.061C295.366 302.305 295.298 302.588 295.298 302.909V307H294.293ZM307.467 307.136C306.836 307.136 306.292 306.997 305.834 306.719C305.38 306.438 305.029 306.045 304.782 305.543C304.538 305.037 304.415 304.449 304.415 303.778C304.415 303.108 304.538 302.517 304.782 302.006C305.029 301.491 305.373 301.091 305.813 300.804C306.256 300.514 306.773 300.369 307.364 300.369C307.705 300.369 308.042 300.426 308.374 300.54C308.707 300.653 309.009 300.838 309.282 301.094C309.555 301.347 309.772 301.682 309.934 302.099C310.096 302.517 310.177 303.031 310.177 303.642V304.068H305.131V303.199H309.154C309.154 302.83 309.08 302.5 308.932 302.21C308.788 301.92 308.58 301.692 308.31 301.524C308.043 301.357 307.728 301.273 307.364 301.273C306.964 301.273 306.617 301.372 306.324 301.571C306.035 301.767 305.812 302.023 305.655 302.338C305.499 302.653 305.421 302.991 305.421 303.352V303.932C305.421 304.426 305.506 304.845 305.677 305.189C305.85 305.53 306.09 305.79 306.397 305.969C306.704 306.145 307.06 306.233 307.467 306.233C307.731 306.233 307.969 306.196 308.182 306.122C308.398 306.045 308.584 305.932 308.741 305.781C308.897 305.628 309.018 305.437 309.103 305.21L310.074 305.483C309.972 305.812 309.8 306.102 309.559 306.352C309.317 306.599 309.019 306.793 308.664 306.932C308.309 307.068 307.91 307.136 307.467 307.136ZM315.218 307V298.273H316.224V301.494H316.309C316.383 301.381 316.485 301.236 316.616 301.06C316.749 300.881 316.94 300.722 317.187 300.582C317.437 300.44 317.775 300.369 318.201 300.369C318.752 300.369 319.238 300.507 319.658 300.783C320.079 301.058 320.407 301.449 320.643 301.955C320.878 302.46 320.996 303.057 320.996 303.744C320.996 304.438 320.878 305.038 320.643 305.547C320.407 306.053 320.08 306.445 319.663 306.723C319.245 306.999 318.763 307.136 318.218 307.136C317.797 307.136 317.461 307.067 317.208 306.928C316.955 306.786 316.761 306.625 316.624 306.446C316.488 306.264 316.383 306.114 316.309 305.994H316.19V307H315.218ZM316.207 303.727C316.207 304.222 316.279 304.658 316.424 305.036C316.569 305.411 316.78 305.705 317.059 305.918C317.337 306.128 317.678 306.233 318.082 306.233C318.502 306.233 318.853 306.122 319.134 305.901C319.418 305.676 319.631 305.375 319.773 304.997C319.918 304.616 319.991 304.193 319.991 303.727C319.991 303.267 319.92 302.852 319.778 302.483C319.638 302.111 319.427 301.817 319.143 301.601C318.861 301.382 318.508 301.273 318.082 301.273C317.672 301.273 317.329 301.376 317.05 301.584C316.772 301.788 316.562 302.075 316.42 302.445C316.278 302.811 316.207 303.239 316.207 303.727ZM324.461 307.153C324.046 307.153 323.67 307.075 323.332 306.919C322.994 306.76 322.725 306.531 322.526 306.233C322.327 305.932 322.228 305.568 322.228 305.142C322.228 304.767 322.302 304.463 322.449 304.23C322.597 303.994 322.795 303.81 323.042 303.676C323.289 303.543 323.562 303.443 323.86 303.378C324.161 303.31 324.464 303.256 324.768 303.216C325.165 303.165 325.488 303.126 325.735 303.101C325.985 303.072 326.167 303.026 326.28 302.96C326.397 302.895 326.455 302.781 326.455 302.619V302.585C326.455 302.165 326.34 301.838 326.11 301.605C325.883 301.372 325.538 301.256 325.074 301.256C324.594 301.256 324.218 301.361 323.945 301.571C323.672 301.781 323.481 302.006 323.37 302.244L322.415 301.903C322.586 301.506 322.813 301.196 323.097 300.974C323.384 300.75 323.697 300.594 324.035 300.506C324.376 300.415 324.711 300.369 325.04 300.369C325.251 300.369 325.492 300.395 325.765 300.446C326.04 300.494 326.306 300.595 326.562 300.749C326.82 300.902 327.035 301.134 327.205 301.443C327.376 301.753 327.461 302.168 327.461 302.688V307H326.455V306.114H326.404C326.336 306.256 326.222 306.408 326.063 306.57C325.904 306.732 325.692 306.869 325.428 306.983C325.164 307.097 324.842 307.153 324.461 307.153ZM324.614 306.25C325.012 306.25 325.347 306.172 325.62 306.016C325.896 305.859 326.103 305.658 326.242 305.411C326.384 305.163 326.455 304.903 326.455 304.631V303.71C326.413 303.761 326.319 303.808 326.174 303.851C326.032 303.891 325.867 303.926 325.68 303.957C325.495 303.986 325.315 304.011 325.138 304.034C324.965 304.054 324.824 304.071 324.717 304.085C324.455 304.119 324.211 304.175 323.984 304.251C323.759 304.325 323.577 304.437 323.438 304.588C323.302 304.736 323.234 304.937 323.234 305.193C323.234 305.543 323.363 305.807 323.621 305.986C323.883 306.162 324.214 306.25 324.614 306.25ZM331.956 307.136C331.342 307.136 330.813 306.991 330.37 306.702C329.927 306.412 329.586 306.013 329.348 305.504C329.109 304.996 328.99 304.415 328.99 303.761C328.99 303.097 329.112 302.51 329.356 302.001C329.603 301.49 329.947 301.091 330.387 300.804C330.831 300.514 331.348 300.369 331.938 300.369C332.399 300.369 332.813 300.455 333.183 300.625C333.552 300.795 333.855 301.034 334.09 301.341C334.326 301.648 334.473 302.006 334.529 302.415H333.524C333.447 302.116 333.277 301.852 333.012 301.622C332.751 301.389 332.399 301.273 331.956 301.273C331.563 301.273 331.22 301.375 330.924 301.58C330.632 301.781 330.403 302.067 330.238 302.436C330.076 302.803 329.995 303.233 329.995 303.727C329.995 304.233 330.075 304.673 330.234 305.048C330.396 305.423 330.623 305.714 330.916 305.922C331.211 306.129 331.558 306.233 331.956 306.233C332.217 306.233 332.454 306.188 332.667 306.097C332.88 306.006 333.061 305.875 333.208 305.705C333.356 305.534 333.461 305.33 333.524 305.091H334.529C334.473 305.477 334.332 305.825 334.108 306.135C333.886 306.442 333.592 306.686 333.225 306.868C332.862 307.047 332.438 307.136 331.956 307.136ZM336.937 304.614L336.92 303.369H337.125L339.988 300.455H341.233L338.181 303.54H338.096L336.937 304.614ZM336 307V298.273H337.005V307H336ZM340.159 307L337.602 303.761L338.318 303.062L341.437 307H340.159ZM346.908 298.273V307H345.902V298.273H346.908ZM350.676 307.153C350.261 307.153 349.884 307.075 349.546 306.919C349.208 306.76 348.94 306.531 348.741 306.233C348.542 305.932 348.443 305.568 348.443 305.142C348.443 304.767 348.517 304.463 348.664 304.23C348.812 303.994 349.009 303.81 349.257 303.676C349.504 303.543 349.777 303.443 350.075 303.378C350.376 303.31 350.679 303.256 350.983 303.216C351.38 303.165 351.703 303.126 351.95 303.101C352.2 303.072 352.382 303.026 352.495 302.96C352.612 302.895 352.67 302.781 352.67 302.619V302.585C352.67 302.165 352.555 301.838 352.325 301.605C352.098 301.372 351.752 301.256 351.289 301.256C350.809 301.256 350.433 301.361 350.16 301.571C349.887 301.781 349.696 302.006 349.585 302.244L348.63 301.903C348.801 301.506 349.028 301.196 349.312 300.974C349.599 300.75 349.911 300.594 350.25 300.506C350.59 300.415 350.926 300.369 351.255 300.369C351.465 300.369 351.707 300.395 351.98 300.446C352.255 300.494 352.521 300.595 352.777 300.749C353.035 300.902 353.25 301.134 353.42 301.443C353.59 301.753 353.676 302.168 353.676 302.688V307H352.67V306.114H352.619C352.551 306.256 352.437 306.408 352.278 306.57C352.119 306.732 351.907 306.869 351.643 306.983C351.379 307.097 351.056 307.153 350.676 307.153ZM350.829 306.25C351.227 306.25 351.562 306.172 351.835 306.016C352.11 305.859 352.318 305.658 352.457 305.411C352.599 305.163 352.67 304.903 352.67 304.631V303.71C352.627 303.761 352.534 303.808 352.389 303.851C352.247 303.891 352.082 303.926 351.894 303.957C351.71 303.986 351.529 304.011 351.353 304.034C351.18 304.054 351.039 304.071 350.931 304.085C350.67 304.119 350.426 304.175 350.198 304.251C349.974 304.325 349.792 304.437 349.653 304.588C349.517 304.736 349.448 304.937 349.448 305.193C349.448 305.543 349.578 305.807 349.836 305.986C350.098 306.162 350.429 306.25 350.829 306.25ZM358.358 300.455V301.307H354.966V300.455H358.358ZM355.954 298.886H356.96V305.125C356.96 305.409 357.001 305.622 357.084 305.764C357.169 305.903 357.277 305.997 357.408 306.045C357.541 306.091 357.682 306.114 357.829 306.114C357.94 306.114 358.031 306.108 358.102 306.097C358.173 306.082 358.23 306.071 358.273 306.062L358.477 306.966C358.409 306.991 358.314 307.017 358.192 307.043C358.07 307.071 357.915 307.085 357.727 307.085C357.443 307.085 357.165 307.024 356.892 306.902C356.622 306.78 356.398 306.594 356.219 306.344C356.043 306.094 355.954 305.778 355.954 305.398V298.886ZM362.545 307.136C361.914 307.136 361.37 306.997 360.913 306.719C360.458 306.438 360.107 306.045 359.86 305.543C359.616 305.037 359.494 304.449 359.494 303.778C359.494 303.108 359.616 302.517 359.86 302.006C360.107 301.491 360.451 301.091 360.891 300.804C361.334 300.514 361.851 300.369 362.442 300.369C362.783 300.369 363.12 300.426 363.452 300.54C363.785 300.653 364.087 300.838 364.36 301.094C364.633 301.347 364.85 301.682 365.012 302.099C365.174 302.517 365.255 303.031 365.255 303.642V304.068H360.209V303.199H364.232C364.232 302.83 364.158 302.5 364.011 302.21C363.866 301.92 363.658 301.692 363.388 301.524C363.121 301.357 362.806 301.273 362.442 301.273C362.042 301.273 361.695 301.372 361.403 301.571C361.113 301.767 360.89 302.023 360.734 302.338C360.577 302.653 360.499 302.991 360.499 303.352V303.932C360.499 304.426 360.584 304.845 360.755 305.189C360.928 305.53 361.168 305.79 361.475 305.969C361.782 306.145 362.138 306.233 362.545 306.233C362.809 306.233 363.047 306.196 363.261 306.122C363.476 306.045 363.663 305.932 363.819 305.781C363.975 305.628 364.096 305.437 364.181 305.21L365.153 305.483C365.05 305.812 364.878 306.102 364.637 306.352C364.396 306.599 364.097 306.793 363.742 306.932C363.387 307.068 362.988 307.136 362.545 307.136ZM366.785 307V300.455H367.756V301.443H367.824C367.944 301.119 368.16 300.857 368.472 300.655C368.785 300.453 369.137 300.352 369.529 300.352C369.603 300.352 369.695 300.354 369.806 300.357C369.917 300.359 370.001 300.364 370.057 300.369V301.392C370.023 301.384 369.945 301.371 369.823 301.354C369.704 301.334 369.577 301.324 369.444 301.324C369.126 301.324 368.842 301.391 368.592 301.524C368.344 301.655 368.148 301.837 368.003 302.07C367.861 302.3 367.79 302.562 367.79 302.858V307H366.785ZM371.233 307.068C371.022 307.068 370.842 306.993 370.691 306.842C370.541 306.692 370.465 306.511 370.465 306.301C370.465 306.091 370.541 305.911 370.691 305.76C370.842 305.609 371.022 305.534 371.233 305.534C371.443 305.534 371.623 305.609 371.774 305.76C371.924 305.911 372 306.091 372 306.301C372 306.44 371.964 306.568 371.893 306.685C371.825 306.801 371.733 306.895 371.616 306.966C371.502 307.034 371.375 307.068 371.233 307.068ZM374.537 307.068C374.327 307.068 374.147 306.993 373.996 306.842C373.845 306.692 373.77 306.511 373.77 306.301C373.77 306.091 373.845 305.911 373.996 305.76C374.147 305.609 374.327 305.534 374.537 305.534C374.747 305.534 374.928 305.609 375.078 305.76C375.229 305.911 375.304 306.091 375.304 306.301C375.304 306.44 375.269 306.568 375.198 306.685C375.13 306.801 375.037 306.895 374.921 306.966C374.807 307.034 374.679 307.068 374.537 307.068ZM377.842 307.068C377.632 307.068 377.451 306.993 377.301 306.842C377.15 306.692 377.075 306.511 377.075 306.301C377.075 306.091 377.15 305.911 377.301 305.76C377.451 305.609 377.632 305.534 377.842 305.534C378.052 305.534 378.233 305.609 378.383 305.76C378.534 305.911 378.609 306.091 378.609 306.301C378.609 306.44 378.573 306.568 378.502 306.685C378.434 306.801 378.342 306.895 378.225 306.966C378.112 307.034 377.984 307.068 377.842 307.068Z" fill="black"/>
    <path d="M214.037 252.773V243.085L238.327 204.818H246.679V218.227H241.736L226.424 242.46V242.915H260.941V252.773H214.037ZM241.964 263V249.818L242.191 245.528V204.818H253.725V263H241.964ZM291.949 264.278C287.063 264.259 282.858 263.057 279.336 260.67C275.832 258.284 273.133 254.828 271.239 250.301C269.364 245.775 268.436 240.33 268.455 233.966C268.455 227.621 269.392 222.214 271.267 217.744C273.161 213.275 275.86 209.875 279.364 207.545C282.887 205.197 287.082 204.023 291.949 204.023C296.817 204.023 301.002 205.197 304.506 207.545C308.029 209.894 310.737 213.303 312.631 217.773C314.525 222.223 315.463 227.621 315.444 233.966C315.444 240.348 314.497 245.803 312.603 250.33C310.728 254.856 308.038 258.312 304.535 260.699C301.031 263.085 296.836 264.278 291.949 264.278ZM291.949 254.08C295.283 254.08 297.944 252.403 299.932 249.051C301.921 245.699 302.906 240.67 302.887 233.966C302.887 229.553 302.432 225.879 301.523 222.943C300.633 220.008 299.364 217.801 297.716 216.324C296.088 214.847 294.165 214.108 291.949 214.108C288.635 214.108 285.983 215.765 283.995 219.08C282.006 222.394 281.002 227.356 280.983 233.966C280.983 238.436 281.428 242.167 282.319 245.159C283.228 248.133 284.506 250.367 286.154 251.864C287.802 253.341 289.733 254.08 291.949 254.08ZM323.334 252.773V243.085L347.624 204.818H355.976V218.227H351.033L335.721 242.46V242.915H370.238V252.773H323.334ZM351.26 263V249.818L351.488 245.528V204.818H363.022V263H351.26Z" fill="#AAAAAA"/>
    <path d="M144.323 169.503V194.223C144.323 199.09 140.383 203.037 135.525 203.037H23.8949C19.9767 203.037 16.6595 200.473 15.5241 196.927C15.2436 196.075 15.0967 195.165 15.0967 194.223V169.503C15.0967 164.637 19.0327 160.689 23.8949 160.689H135.525C137.738 160.689 139.76 161.506 141.305 162.866C143.152 164.476 144.323 166.854 144.323 169.503Z" fill="#B1B1B1"/>
    <path d="M144.324 169.503V194.223C144.324 199.09 140.383 203.037 135.525 203.037H23.895C19.9767 203.037 16.6596 200.473 15.5242 196.927C39.4122 198.372 63.3892 199.322 87.117 196.467C114.322 193.198 114.18 184.598 135.699 167.608C137.618 166.091 139.488 164.508 141.305 162.866C143.152 164.476 144.324 166.854 144.324 169.503Z" fill="#A3A3A3"/>
    <path d="M43.1211 173.79H53.0726V176.89H46.6609V180.057H52.1821V183H46.6609V186.837H53.3175V189.937H43.1211V173.79Z" fill="white"/>
    <path d="M55.6106 173.79H60.6643C62.5789 173.79 64.3821 174.057 65.6734 174.86C66.8533 175.596 67.6103 176.8 67.6103 178.652C67.6103 180.726 66.4749 182.421 64.3376 183.112L68.8792 189.937H64.8051L60.731 183.558H59.1504V189.937H55.6106V173.79ZM60.9314 180.904C61.8887 180.904 62.6234 180.793 63.1577 180.525C63.7588 180.213 64.0705 179.677 64.0705 178.897C64.0705 178.116 63.8033 177.648 63.1577 177.313C62.6011 177.023 61.7329 176.89 60.5084 176.89H59.1504V180.904H60.9314Z" fill="white"/>
    <path d="M70.1482 173.79H75.2019C77.1165 173.79 78.9197 174.057 80.211 174.86C81.3909 175.596 82.1479 176.8 82.1479 178.652C82.1479 180.726 81.0125 182.421 78.8752 183.112L83.4168 189.937H79.3427L75.2686 183.558H73.688V189.937H70.1482V173.79ZM75.469 180.904C76.4263 180.904 77.161 180.793 77.6953 180.525C78.2964 180.213 78.6081 179.677 78.6081 178.897C78.6081 178.116 78.3409 177.648 77.6953 177.313C77.1387 177.023 76.2705 176.89 75.046 176.89H73.688V180.904H75.469Z" fill="white"/>
    <path d="M83.9734 181.863C83.9734 177.157 87.6022 173.544 92.3887 173.544C97.1752 173.544 100.804 177.157 100.804 181.863C100.804 186.569 97.1752 190.182 92.3887 190.182C87.6022 190.182 83.9734 186.569 83.9734 181.863ZM97.2643 181.863C97.2643 179.009 95.1716 176.756 92.3887 176.756C89.6059 176.756 87.5132 179.009 87.5132 181.863C87.5132 184.718 89.6059 186.971 92.3887 186.971C95.1716 186.971 97.2643 184.718 97.2643 181.863Z" fill="white"/>
    <path d="M103.026 173.79H108.08C109.994 173.79 111.797 174.057 113.089 174.86C114.269 175.596 115.026 176.8 115.026 178.652C115.026 180.726 113.89 182.421 111.753 183.112L116.295 189.937H112.22L108.146 183.558H106.566V189.937H103.026V173.79ZM108.347 180.904C109.304 180.904 110.039 180.793 110.573 180.525C111.174 180.213 111.486 179.677 111.486 178.897C111.486 178.116 111.219 177.648 110.573 177.313C110.016 177.023 109.148 176.89 107.924 176.89H106.566V180.904H108.347Z" fill="white"/>
    <path d="M546.118 425.826H487.447C481.431 425.826 476.569 422.302 474.281 417.498C472.473 413.711 472.255 409.135 474.316 404.857L498.187 355.386C501.633 348.24 508.859 343.699 516.785 343.699C520.743 343.699 524.537 344.832 527.76 346.862C530.989 348.891 533.66 351.813 535.388 355.386L548.91 383.42L559.249 404.857C563.933 414.559 556.88 425.826 546.118 425.826Z" fill="#FDB933"/>
    <path d="M546.118 425.826H487.447C481.432 425.826 476.569 422.302 474.281 417.498C484.384 419.88 494.647 421.379 504.954 420.576C520.156 419.385 535.659 412.36 543.478 399.25C546.354 394.42 548.069 389.004 548.906 383.42L559.245 404.857C563.929 414.559 556.876 425.826 546.114 425.826H546.118Z" fill="#F99D33"/>
    <path d="M509.839 357.991H523.731L520.81 396.181H512.76L509.839 357.991ZM516.785 402.35C520.574 402.35 523.731 405.433 523.731 409.228C523.731 413.024 520.574 416.107 516.785 416.107C512.996 416.107 509.839 413.024 509.839 409.228C509.839 405.433 512.996 402.35 516.785 402.35Z" fill="white"/>
    <path d="M575 460H0V468H575V460Z" fill="#515151"/>
    <path d="M59.9124 356.474H82.518L60.8029 378.232H59.9124C58.2649 378.232 56.9336 376.899 56.9336 375.248V359.458C56.9336 357.808 58.2649 356.474 59.9124 356.474Z" fill="#FDB933"/>
    <path d="M106.459 356.474H128.384L106.669 378.232H84.7397L106.459 356.474Z" fill="#FDB933"/>
    <path d="M152.325 356.474H174.25L152.535 378.232H130.606L152.325 356.474Z" fill="#FDB933"/>
    <path d="M203.156 359.458V375.248C203.156 376.899 201.825 378.232 200.177 378.232H176.472L198.191 356.474H200.177C201.825 356.474 203.156 357.808 203.156 359.458Z" fill="#FDB933"/>
    <path d="M106.46 356.474L84.74 378.232H60.803L82.5181 356.474H106.46Z" fill="white"/>
    <path d="M152.325 356.474L130.606 378.232H106.669L128.384 356.474H152.325Z" fill="white"/>
    <path d="M198.191 356.474L176.472 378.232H152.535L174.25 356.474H198.191Z" fill="white"/>
    <path d="M82.5181 356.786C88.9313 356.786 94.1303 351.578 94.1303 345.153C94.1303 338.729 88.9313 333.521 82.5181 333.521C76.1048 333.521 70.9058 338.729 70.9058 345.153C70.9058 351.578 76.1048 356.786 82.5181 356.786Z" fill="#515151"/>
    <path d="M88.8007 345.154C88.8007 348.628 85.9867 351.447 82.5182 351.447C80.5145 351.447 78.7246 350.506 77.5758 349.039C76.7343 347.968 76.2356 346.621 76.2356 345.154C76.2356 341.679 79.0496 338.86 82.5182 338.86C85.3411 338.86 87.7321 340.729 88.5247 343.294C88.7028 343.882 88.8007 344.507 88.8007 345.154Z" fill="#FDB933"/>
    <path d="M88.8006 345.153C88.8006 348.628 85.9866 351.447 82.518 351.447C80.5144 351.447 78.7244 350.506 77.5757 349.039C80.7815 349.137 86.1112 348.396 88.5245 343.293C88.7026 343.882 88.8006 344.507 88.8006 345.153Z" fill="#F99D33"/>
    <path d="M81.2089 343.115C82.1065 343.115 82.8341 342.386 82.8341 341.487C82.8341 340.588 82.1065 339.859 81.2089 339.859C80.3114 339.859 79.5837 340.588 79.5837 341.487C79.5837 342.386 80.3114 343.115 81.2089 343.115Z" fill="#FF906E"/>
    <path d="M176.472 356.786C182.885 356.786 188.084 351.578 188.084 345.153C188.084 338.729 182.885 333.521 176.472 333.521C170.058 333.521 164.859 338.729 164.859 345.153C164.859 351.578 170.058 356.786 176.472 356.786Z" fill="#515151"/>
    <path d="M182.754 345.154C182.754 348.628 179.94 351.447 176.472 351.447C174.468 351.447 172.678 350.506 171.529 349.039C170.688 347.968 170.189 346.621 170.189 345.154C170.189 341.679 173.003 338.86 176.472 338.86C179.295 338.86 181.686 340.729 182.478 343.294C182.656 343.882 182.754 344.507 182.754 345.154Z" fill="#FDB933"/>
    <path d="M182.754 345.153C182.754 348.628 179.94 351.447 176.472 351.447C174.468 351.447 172.678 350.506 171.529 349.039C174.735 349.137 180.065 348.396 182.478 343.293C182.656 343.882 182.754 344.507 182.754 345.153Z" fill="#F99D33"/>
    <path d="M175.163 343.115C176.06 343.115 176.788 342.386 176.788 341.487C176.788 340.588 176.06 339.859 175.163 339.859C174.265 339.859 173.537 340.588 173.537 341.487C173.537 342.386 174.265 343.115 175.163 343.115Z" fill="#FF906E"/>
    <path d="M87.4515 378.232H77.5935V460.306H87.4515V378.232Z" fill="#515151"/>
    <path d="M182.028 378.232H172.17V460.306H182.028V378.232Z" fill="#515151"/>
    <path d="M59.9124 389.228H82.518L60.8029 410.986H59.9124C58.2649 410.986 56.9336 409.652 56.9336 408.002V392.212C56.9336 390.561 58.2649 389.228 59.9124 389.228Z" fill="#FDB933"/>
    <path d="M106.459 389.228H128.384L106.669 410.986H84.7397L106.459 389.228Z" fill="#FDB933"/>
    <path d="M152.325 389.228H174.25L152.535 410.986H130.606L152.325 389.228Z" fill="#FDB933"/>
    <path d="M203.156 392.212V408.002C203.156 409.652 201.825 410.986 200.177 410.986H176.472L198.191 389.228H200.177C201.825 389.228 203.156 390.561 203.156 392.212Z" fill="#FDB933"/>
    <path d="M106.46 389.228L84.74 410.986H60.803L82.5181 389.228H106.46Z" fill="white"/>
    <path d="M152.325 389.228L130.606 410.986H106.669L128.384 389.228H152.325Z" fill="white"/>
    <path d="M198.191 389.228L176.472 410.986H152.535L174.25 389.228H198.191Z" fill="white"/>
    <path d="M371.356 433.588C370.946 433.65 370.532 433.712 370.109 433.779L356.355 393.827C367.758 403.479 373.845 418.841 371.356 433.583V433.588Z" fill="#8B8B8B"/>
    <path d="M385.199 435.157C382.599 435.612 380.065 436.005 377.518 436.152L381.437 370.694C389.816 390.954 391.165 414.055 385.199 435.157Z" fill="#8B8B8B"/>
    <path d="M381.437 370.694L377.518 436.152C375.555 436.264 373.587 436.232 371.57 435.969C365.906 414.077 369.557 389.928 381.437 370.694Z" fill="#B0B0B0"/>
    <path d="M370.109 433.784C368.364 434.065 366.561 434.39 364.851 434.64C356.943 422.802 353.831 407.85 356.355 393.831L370.109 433.784Z" fill="#B0B0B0"/>
    <path d="M385.818 433.588C386.227 433.65 386.642 433.712 387.065 433.779L400.819 393.827C389.415 403.479 383.329 418.841 385.818 433.583V433.588Z" fill="#8B8B8B"/>
    <path d="M387.065 433.784C388.81 434.065 390.613 434.39 392.323 434.64C400.231 422.802 403.343 407.85 400.819 393.831L387.065 433.784Z" fill="#B0B0B0"/>
    <path d="M394.861 460.328H363.025L360.799 434.569H397.087L394.861 460.328Z" fill="#FDB933"/>
    <path d="M398.606 432.419H359.281V437.749H398.606V432.419Z" fill="#FDB933"/>
    <path d="M361.075 437.771L361.431 441.87L396.081 446.188L396.833 437.503L361.075 437.771Z" fill="#F99D33"/>
    <path d="M366.601 449.052C367.486 449.052 368.204 448.333 368.204 447.446C368.204 446.559 367.486 445.84 366.601 445.84C365.715 445.84 364.998 446.559 364.998 447.446C364.998 448.333 365.715 449.052 366.601 449.052Z" fill="#F99D33"/>
    <path d="M364.628 453.196C364.953 453.196 365.216 452.932 365.216 452.607C365.216 452.282 364.953 452.018 364.628 452.018C364.303 452.018 364.04 452.282 364.04 452.607C364.04 452.932 364.303 453.196 364.628 453.196Z" fill="#F99D33"/>
</svg>
