<svg width="200" height="50" viewBox="0 0 200 50" fill="none" xmlns="http://www.w3.org/2000/svg">
    <path d="M155.743 0.00390625C142.974 0.00390625 130.203 8.15856 130.195 24.4187H143.036V24.4357C143.036 15.482 149.389 11.0241 155.743 11.0241C162.098 11.0241 168.448 15.5085 168.448 24.4357C168.448 33.3629 162.096 37.9834 155.741 37.9909C149.387 37.9985 143.036 33.4895 143.036 24.4357C143.235 30.7387 140.927 36.8634 136.621 41.4647C139.139 43.9501 142.127 45.9072 145.41 47.2215C148.693 48.5358 152.204 49.1808 155.739 49.1188C168.514 49.1188 181.287 40.9094 181.287 24.4376C181.287 7.96587 168.512 -0.00177608 155.739 0.00577976L155.743 0.00390625Z" fill="#F99D33"/>
    <path d="M104.785 24.4357C104.639 21.6821 105.388 18.9553 106.918 16.663C108.448 14.3706 110.678 12.6358 113.274 11.7178C115.87 10.7999 118.694 10.7481 121.322 11.5703C123.95 12.3925 126.242 14.0444 127.855 16.2792C128.966 12.1541 131.112 8.38245 134.09 5.32318C119.438 -5.83681 91.9421 0.559211 91.9421 24.4319C91.9421 50.0254 122.909 55.732 136.629 41.459C134.493 39.1829 132.826 36.5076 131.723 33.586C130.619 30.6645 130.102 27.5539 130.199 24.4319C130.307 26.1696 130.059 27.911 129.469 29.5489C128.88 31.1867 127.961 32.6863 126.771 33.9552C125.581 35.2241 124.143 36.2354 122.548 36.9268C120.952 37.6182 119.232 37.975 117.494 37.9752C115.755 37.9755 114.035 37.6192 112.44 36.9283C110.844 36.2374 109.407 35.2265 108.216 33.958C107.025 32.6894 106.106 31.1901 105.516 29.5524C104.926 27.9148 104.677 26.1734 104.785 24.4357Z" fill="#FDB933"/>
    <path d="M143.04 24.4185H130.199V24.4355C130.101 27.5578 130.619 30.6687 131.722 33.5906C132.825 36.5125 134.493 39.188 136.629 41.4644C140.934 36.8625 143.24 30.7383 143.042 24.4355L143.04 24.4185Z" fill="#E98430"/>
    <path d="M191.625 0.0376968C190.047 0.100296 188.522 0.626264 187.239 1.5502C185.957 2.47413 184.974 3.75524 184.413 5.23416C183.853 6.71307 183.738 8.32454 184.084 9.86807C184.431 11.4116 185.223 12.8191 186.362 13.9154C187.5 15.0118 188.936 15.7486 190.49 16.0343C192.043 16.3199 193.647 16.1418 195.1 15.522C196.553 14.9023 197.793 13.8682 198.664 12.5485C199.535 11.2289 200 9.68179 200 8.09976C199.956 5.91867 199.05 3.84419 197.479 2.33237C195.909 0.820562 193.803 -0.00480821 191.625 0.0376968ZM191.625 14.2238C190.426 14.176 189.268 13.7763 188.294 13.0743C187.321 12.3723 186.574 11.3991 186.148 10.2757C185.723 9.15236 185.636 7.92838 185.899 6.75605C186.163 5.58373 186.764 4.5148 187.63 3.68225C188.495 2.8497 189.585 2.29026 190.765 2.07354C191.945 1.85682 193.163 1.99238 194.267 2.46335C195.371 2.93431 196.312 3.7199 196.973 4.7224C197.635 5.72489 197.988 6.90005 197.987 8.10167C197.954 9.7582 197.265 11.3336 196.072 12.4815C194.879 13.6295 193.279 14.2562 191.625 14.2238Z" fill="black"/>
    <path d="M193.21 8.63257C193.506 8.64912 193.801 8.60149 194.077 8.49298C194.353 8.38448 194.602 8.21763 194.807 8.00385C195.013 7.79007 195.17 7.5344 195.267 7.2543C195.365 6.9742 195.401 6.67629 195.373 6.38093C195.373 4.40319 194.002 3.7666 191.684 3.7666H188.327V12.418H190.247V8.78557H191.152L193.227 12.418H195.501L193.21 8.63257ZM191.952 7.31028H190.254V5.23244H191.603C192.331 5.23244 193.325 5.29477 193.325 6.18825C193.325 7.14406 192.819 7.32163 191.956 7.32163" fill="black"/>
    <path d="M76.8285 27.4218L77.5113 28.3361L77.3755 27.0308V1.17285H89.9146V46.8857H78.2658L54.902 20.5026V46.8857H42.2969V1.17285H53.1234L76.8285 27.4218Z" fill="black"/>
    <path d="M12.3731 19.0009H36.4668V29.2541H12.3731V36.6324H39.5997V46.8857H0V1.17285H39.5941V11.36H12.3731V19.0009Z" fill="black"/>
</svg>
