<svg width="20" height="20" viewBox="0 0 20 20" fill="none" xmlns="http://www.w3.org/2000/svg">
    <path d="M15 8.95829C14.6583 8.95829 14.375 8.67496 14.375 8.33329V6.66663C14.375 4.04163 13.6333 2.29163 10 2.29163C6.36667 2.29163 5.625 4.04163 5.625 6.66663V8.33329C5.625 8.67496 5.34167 8.95829 5 8.95829C4.65833 8.95829 4.375 8.67496 4.375 8.33329V6.66663C4.375 4.24996 4.95833 1.04163 10 1.04163C15.0417 1.04163 15.625 4.24996 15.625 6.66663V8.33329C15.625 8.67496 15.3417 8.95829 15 8.95829Z" fill="#AAAAAA"/>
    <path d="M9.99935 16.0417C8.50768 16.0417 7.29102 14.825 7.29102 13.3333C7.29102 11.8417 8.50768 10.625 9.99935 10.625C11.491 10.625 12.7077 11.8417 12.7077 13.3333C12.7077 14.825 11.491 16.0417 9.99935 16.0417ZM9.99935 11.875C9.19935 11.875 8.54102 12.5333 8.54102 13.3333C8.54102 14.1333 9.19935 14.7917 9.99935 14.7917C10.7993 14.7917 11.4577 14.1333 11.4577 13.3333C11.4577 12.5333 10.7993 11.875 9.99935 11.875Z" fill="#AAAAAA"/>
    <path d="M14.166 18.9584H5.83268C2.15768 18.9584 1.04102 17.8417 1.04102 14.1667V12.5C1.04102 8.82504 2.15768 7.70837 5.83268 7.70837H14.166C17.841 7.70837 18.9577 8.82504 18.9577 12.5V14.1667C18.9577 17.8417 17.841 18.9584 14.166 18.9584ZM5.83268 8.95837C2.84935 8.95837 2.29102 9.52504 2.29102 12.5V14.1667C2.29102 17.1417 2.84935 17.7084 5.83268 17.7084H14.166C17.1493 17.7084 17.7077 17.1417 17.7077 14.1667V12.5C17.7077 9.52504 17.1493 8.95837 14.166 8.95837H5.83268Z" fill="#AAAAAA"/>
</svg>
