<svg width="13" height="12" viewBox="0 0 13 12" fill="none" xmlns="http://www.w3.org/2000/svg">
    <path fill-rule="evenodd" clip-rule="evenodd" d="M0.587891 5.99996C0.587891 9.43329 2.98789 11.8333 6.42122 11.8333C6.69456 11.8333 6.92122 11.6066 6.92122 11.3333C6.92122 11.06 6.69456 10.8333 6.42122 10.8333C3.57456 10.8333 1.58789 8.84663 1.58789 5.99996C1.58789 3.15329 3.57456 1.16663 6.42122 1.16663C6.69456 1.16663 6.92122 0.939959 6.92122 0.666626C6.92122 0.393293 6.69456 0.166626 6.42122 0.166626C2.98789 0.166626 0.587891 2.56663 0.587891 5.99996ZM10.2079 8.24663C10.0812 8.24663 9.95456 8.19996 9.85456 8.09996C9.66122 7.90663 9.66122 7.58663 9.85456 7.39329L10.7079 6.53996H5.08789C4.81456 6.53996 4.58789 6.31329 4.58789 6.03996C4.58789 5.76663 4.81456 5.53996 5.08789 5.53996H10.7079L9.85456 4.68663C9.66122 4.49329 9.66122 4.17329 9.85456 3.97996C10.0479 3.78663 10.3679 3.78663 10.5612 3.97996L12.2679 5.68663C12.4612 5.87996 12.4612 6.19996 12.2679 6.39329L10.5612 8.09996C10.4612 8.19996 10.3346 8.24663 10.2079 8.24663Z" fill="black"/>
</svg>
