<svg width="18" height="16" viewBox="0 0 18 16" fill="none" xmlns="http://www.w3.org/2000/svg">
    <path opacity="0.4" d="M11.927 8.0042C11.927 9.623 10.6189 10.9311 9.00005 10.9311C7.38124 10.9311 6.07312 9.623 6.07312 8.0042C6.07312 6.3854 7.38124 5.07727 9.00005 5.07727C10.6189 5.07727 11.927 6.3854 11.927 8.0042Z" stroke="black" stroke-linecap="round" stroke-linejoin="round"/>
    <path d="M9 14.7654C11.8861 14.7654 14.5759 13.0648 16.4481 10.1216C17.184 8.96878 17.184 7.03112 16.4481 5.87834C14.5759 2.93506 11.8861 1.2345 9 1.2345C6.11395 1.2345 3.42412 2.93506 1.55187 5.87834C0.816045 7.03112 0.816045 8.96878 1.55187 10.1216C3.42412 13.0648 6.11395 14.7654 9 14.7654Z" stroke="black" stroke-linecap="round" stroke-linejoin="round"/>
</svg>
