<svg width="22" height="22" viewBox="0 0 22 22" fill="none" xmlns="http://www.w3.org/2000/svg">
    <path d="M6.80001 16.9062H4.56877C2.95877 16.9062 2.03125 15.9787 2.03125 14.3687V4.13127C2.03125 2.52127 2.95877 1.59375 4.56877 1.59375H8.33126C9.94126 1.59375 10.8687 2.52127 10.8687 4.13127V5.75C10.8687 6.10875 10.5712 6.40625 10.2125 6.40625C9.85373 6.40625 9.55623 6.10875 9.55623 5.75V4.13127C9.55623 3.23877 9.22376 2.90625 8.33126 2.90625H4.56877C3.67627 2.90625 3.34375 3.23877 3.34375 4.13127V14.3687C3.34375 15.2612 3.67627 15.5938 4.56877 15.5938H6.80001C7.15876 15.5938 7.45626 15.8912 7.45626 16.25C7.45626 16.6088 7.15876 16.9062 6.80001 16.9062Z" fill="#444444"/>
    <path d="M14.0273 20.4062H8.91729C7.15854 20.4062 6.14355 19.3913 6.14355 17.6325V7.86749C6.14355 6.10874 7.15854 5.09375 8.91729 5.09375H14.0273C15.7861 5.09375 16.7923 6.10874 16.7923 7.86749V17.6325C16.7923 19.3913 15.7861 20.4062 14.0273 20.4062ZM8.91729 6.40625C7.86729 6.40625 7.45605 6.81748 7.45605 7.86749V17.6325C7.45605 18.6825 7.86729 19.0938 8.91729 19.0938H14.0273C15.0686 19.0938 15.4798 18.6825 15.4798 17.6325V7.86749C15.4798 6.81748 15.0686 6.40625 14.0273 6.40625H8.91729Z" fill="#444444"/>
    <path d="M18.3058 16.9062H16.1358C15.7771 16.9062 15.4796 16.6088 15.4796 16.25C15.4796 15.8912 15.7771 15.5938 16.1358 15.5938H18.3058C19.1983 15.5938 19.5308 15.2612 19.5308 14.3687V4.13127C19.5308 3.23877 19.1983 2.90625 18.3058 2.90625H14.5433C13.6508 2.90625 13.3184 3.23877 13.3184 4.13127V5.75C13.3184 6.10875 13.0209 6.40625 12.6621 6.40625C12.3034 6.40625 12.0059 6.10875 12.0059 5.75V4.13127C12.0059 2.52127 12.9333 1.59375 14.5433 1.59375H18.3058C19.9158 1.59375 20.8433 2.52127 20.8433 4.13127V14.3687C20.8433 15.9787 19.9158 16.9062 18.3058 16.9062Z" fill="#444444"/>
    <path d="M13.1875 10.7812H9.6875C9.32875 10.7812 9.03125 10.4837 9.03125 10.125C9.03125 9.76625 9.32875 9.46875 9.6875 9.46875H13.1875C13.5462 9.46875 13.8438 9.76625 13.8438 10.125C13.8438 10.4837 13.5462 10.7812 13.1875 10.7812Z" fill="#444444"/>
    <path d="M13.1875 13.4062H9.6875C9.32875 13.4062 9.03125 13.1087 9.03125 12.75C9.03125 12.3913 9.32875 12.0938 9.6875 12.0938H13.1875C13.5462 12.0938 13.8438 12.3913 13.8438 12.75C13.8438 13.1087 13.5462 13.4062 13.1875 13.4062Z" fill="#444444"/>
    <path d="M11.4375 20.4062C11.0788 20.4062 10.7812 20.1088 10.7812 19.75V17.125C10.7812 16.7663 11.0788 16.4688 11.4375 16.4688C11.7962 16.4688 12.0938 16.7663 12.0938 17.125V19.75C12.0938 20.1088 11.7962 20.4062 11.4375 20.4062Z" fill="#444444"/>
</svg>