<svg width="16" height="16" viewBox="0 0 16 16" fill="none" xmlns="http://www.w3.org/2000/svg">
    <path d="M11.9873 7.19334V9.86001C11.9873 10.0333 11.9807 10.2 11.9607 10.36C11.8073 12.16 10.7473 13.0533 8.79399 13.0533H8.52732C8.36066 13.0533 8.20065 13.1333 8.10065 13.2667L7.30066 14.3333C6.94733 14.8067 6.37398 14.8067 6.02065 14.3333L5.22064 13.2667C5.13398 13.1533 4.94065 13.0533 4.79399 13.0533H4.52732C2.40066 13.0533 1.33398 12.5267 1.33398 9.86001V7.19334C1.33398 5.24001 2.23399 4.18001 4.02732 4.02667C4.18732 4.00667 4.35399 4 4.52732 4H8.79399C10.9207 4 11.9873 5.06667 11.9873 7.19334Z" stroke="#FB1837" stroke-miterlimit="10" stroke-linecap="round" stroke-linejoin="round"/>
    <path opacity="0.4" d="M14.653 4.52684V7.1935C14.653 9.1535 13.753 10.2068 11.9597 10.3602C11.9797 10.2002 11.9864 10.0335 11.9864 9.86017V7.1935C11.9864 5.06684 10.9197 4.00016 8.79303 4.00016H4.52637C4.35303 4.00016 4.18637 4.00684 4.02637 4.02684C4.1797 2.2335 5.2397 1.3335 7.19303 1.3335H11.4597C13.5864 1.3335 14.653 2.40017 14.653 4.52684Z" stroke="#FB1837" stroke-miterlimit="10" stroke-linecap="round" stroke-linejoin="round"/>
    <path opacity="0.4" d="M8.99733 8.83333H9.00333" stroke="#FB1837" stroke-linecap="round" stroke-linejoin="round"/>
    <path opacity="0.4" d="M6.66334 8.83333H6.66934" stroke="#FB1837" stroke-linecap="round" stroke-linejoin="round"/>
    <path opacity="0.4" d="M4.33033 8.83333H4.33633" stroke="#FB1837" stroke-linecap="round" stroke-linejoin="round"/>
</svg>
