<svg width="18" height="18" viewBox="0 0 18 18" fill="none" xmlns="http://www.w3.org/2000/svg">
    <path d="M6.67904 8.13752C6.5957 8.12918 6.4957 8.12918 6.40404 8.13752C4.4207 8.07085 2.8457 6.44585 2.8457 4.44585C2.8457 2.40418 4.4957 0.74585 6.5457 0.74585C8.5874 0.74585 10.2457 2.40418 10.2457 4.44585C10.2374 6.44585 8.6624 8.07085 6.67904 8.13752Z" stroke="#444444" stroke-width="1.5" stroke-linecap="round" stroke-linejoin="round"/>
    <path opacity="0.4" d="M12.7206 2.4126C14.3373 2.4126 15.6373 3.72093 15.6373 5.32926C15.6373 6.90426 14.3873 8.1876 12.829 8.24593C12.7623 8.2376 12.6873 8.2376 12.6123 8.24593" stroke="#444444" stroke-width="1.5" stroke-linecap="round" stroke-linejoin="round"/>
    <path d="M2.5125 11.2126C0.495833 12.5626 0.495833 14.7626 2.5125 16.1043C4.80417 17.6376 8.56253 17.6376 10.8542 16.1043C12.8709 14.7543 12.8709 12.5543 10.8542 11.2126C8.57086 9.6876 4.8125 9.6876 2.5125 11.2126Z" stroke="#444444" stroke-width="1.5" stroke-linecap="round" stroke-linejoin="round"/>
    <path opacity="0.4" d="M14.3291 15.7458C14.9291 15.6208 15.4958 15.3792 15.9624 15.0208C17.2624 14.0458 17.2624 12.4375 15.9624 11.4625C15.5041 11.1125 14.9458 10.8792 14.3541 10.7458" stroke="#444444" stroke-width="1.5" stroke-linecap="round" stroke-linejoin="round"/>
</svg>
