<svg width="20" height="20" viewBox="0 0 20 20" fill="none" xmlns="http://www.w3.org/2000/svg">
    <path opacity="0.4" d="M7.27051 10.1583H12.8122" stroke="#444444" stroke-width="1.5" stroke-miterlimit="10" stroke-linecap="round" stroke-linejoin="round"/>
    <path opacity="0.4" d="M7.27051 13.325H10.738" stroke="#444444" stroke-width="1.5" stroke-miterlimit="10" stroke-linecap="round" stroke-linejoin="round"/>
    <path d="M8.85384 5.25004H12.0205C13.6038 5.25004 13.6038 4.45837 13.6038 3.66671C13.6038 2.08337 12.8122 2.08337 12.0205 2.08337H8.85384C8.06217 2.08337 7.27051 2.08337 7.27051 3.66671C7.27051 5.25004 8.06217 5.25004 8.85384 5.25004Z" stroke="#444444" stroke-width="1.5" stroke-miterlimit="10" stroke-linecap="round" stroke-linejoin="round"/>
    <path d="M13.6042 3.6825C16.2404 3.825 17.5625 4.79875 17.5625 8.41666V13.1667C17.5625 16.3333 16.7708 17.9167 12.8125 17.9167H8.0625C4.10417 17.9167 3.3125 16.3333 3.3125 13.1667V8.41666C3.3125 4.80666 4.63458 3.825 7.27083 3.6825" stroke="#444444" stroke-width="1.5" stroke-miterlimit="10" stroke-linecap="round" stroke-linejoin="round"/>
</svg>
