<svg width="44" height="45" viewBox="0 0 44 45" fill="none" xmlns="http://www.w3.org/2000/svg">
    <rect y="0.94397" width="44" height="44" rx="8" fill="#F5F5F5"/>
    <g clip-path="url(#clip0_40_4024)">
        <path d="M14 28.944H30C30.55 28.944 31 28.494 31 27.944C31 27.394 30.55 26.944 30 26.944H14C13.45 26.944 13 27.394 13 27.944C13 28.494 13.45 28.944 14 28.944ZM14 23.944H30C30.55 23.944 31 23.494 31 22.944C31 22.394 30.55 21.944 30 21.944H14C13.45 21.944 13 22.394 13 22.944C13 23.494 13.45 23.944 14 23.944ZM13 17.944C13 18.494 13.45 18.944 14 18.944H30C30.55 18.944 31 18.494 31 17.944C31 17.394 30.55 16.944 30 16.944H14C13.45 16.944 13 17.394 13 17.944Z" fill="#5B6B79"/>
    </g>
    <defs>
        <clipPath id="clip0_40_4024">
            <rect x="10" y="10.944" width="24" height="24" rx="8" fill="white"/>
        </clipPath>
    </defs>
</svg>
