<svg width="23" height="16" viewBox="0 0 23 16" fill="none" xmlns="http://www.w3.org/2000/svg">
    <g clip-path="url(#clip0_99_11536)">
        <path d="M0 0.5H22.9412V15.5H0V0.5Z" fill="white"/>
        <path d="M0 0.5H22.9412V1.65351H0V0.5ZM0 2.80702H22.9412V3.96053H0V2.80702ZM0 5.11404H22.9412V6.26754H0V5.11404ZM0 7.42105H22.9412V8.57456H0V7.42105ZM0 9.73246H22.9412V10.886H0V9.73246ZM0 12.0395H22.9412V13.193H0V12.0395ZM0 14.3465H22.9412V15.5H0V14.3465Z" fill="#D80027"/>
        <path d="M0 0.5H11.4706V8.57456H0V0.5Z" fill="#2E52B2"/>
        <path d="M2.13782 6.59227L1.95894 6.03086L1.76217 6.59227H1.17188L1.65038 6.92999L1.4715 7.49139L1.95894 7.1449L2.43297 7.49139L2.24962 6.92999L2.73706 6.59227H2.13782ZM4.65553 6.59227L4.47218 6.03086L4.28436 6.59227H3.69406L4.17256 6.92999L3.99368 7.49139L4.47218 7.1449L4.95516 7.49139L4.77628 6.92999L5.25478 6.59227H4.65553ZM7.1822 6.59227L6.9899 6.03086L6.81102 6.59227H6.20731L6.69922 6.92999L6.5114 7.49139L6.9899 7.1449L7.48182 7.49139L7.29399 6.92999L7.77249 6.59227H7.1822ZM9.69544 6.59227L9.51656 6.03086L9.32874 6.59227H8.73397L9.21694 6.92999L9.03806 7.49139L9.51656 7.1449L9.99953 7.49139L9.80724 6.92999L10.2992 6.59227H9.69544ZM4.47218 3.80279L4.28436 4.3642H3.69406L4.17256 4.71069L3.99368 5.26332L4.47218 4.92122L4.95516 5.26332L4.77628 4.71069L5.25478 4.3642H4.65553L4.47218 3.80279ZM1.95894 3.80279L1.76217 4.3642H1.17188L1.65038 4.71069L1.4715 5.26332L1.95894 4.92122L2.43297 5.26332L2.24962 4.71069L2.73706 4.3642H2.13782L1.95894 3.80279ZM6.9899 3.80279L6.81102 4.3642H6.20731L6.69922 4.71069L6.5114 5.26332L6.9899 4.92122L7.48182 5.26332L7.29399 4.71069L7.77249 4.3642H7.1822L6.9899 3.80279ZM9.51656 3.80279L9.32874 4.3642H8.73397L9.21694 4.71069L9.03806 5.26332L9.51656 4.92122L9.99953 5.26332L9.80724 4.71069L10.2992 4.3642H9.69544L9.51656 3.80279ZM1.95894 1.5835L1.76217 2.13613H1.17188L1.65038 2.48262L1.4715 3.03964L1.95894 2.69315L2.43297 3.03964L2.24962 2.48262L2.73706 2.13613H2.13782L1.95894 1.5835ZM4.47218 1.5835L4.28436 2.13613H3.69406L4.17256 2.48262L3.99368 3.03964L4.47218 2.69315L4.95516 3.03964L4.77628 2.48262L5.25478 2.13613H4.65553L4.47218 1.5835ZM6.9899 1.5835L6.81102 2.13613H6.20731L6.69922 2.48262L6.5114 3.03964L6.9899 2.69315L7.48182 3.03964L7.29399 2.48262L7.77249 2.13613H7.1822L6.9899 1.5835ZM9.51656 1.5835L9.32874 2.13613H8.73397L9.21694 2.48262L9.03806 3.03964L9.51656 2.69315L9.99953 3.03964L9.80724 2.48262L10.2992 2.13613H9.69544L9.51656 1.5835Z" fill="white"/>
    </g>
    <defs>
        <clipPath id="clip0_99_11536">
            <rect y="0.5" width="22.9412" height="15" rx="2" fill="white"/>
        </clipPath>
    </defs>
</svg>
