<svg width="20" height="20" viewBox="0 0 20 20" fill="none" xmlns="http://www.w3.org/2000/svg">
    <path opacity="0.4" d="M12.8122 2.08337V10C12.8122 10.8709 12.0997 11.5834 11.2288 11.5834H2.52051V6.53254C3.09842 7.22129 3.98511 7.64879 4.96678 7.62504C5.76636 7.60921 6.48676 7.30046 7.02509 6.78588C7.27051 6.58004 7.47636 6.31878 7.63469 6.03378C7.91969 5.55087 8.07801 4.98085 8.06217 4.3871C8.03842 3.46085 7.62677 2.64546 6.98552 2.08337H12.8122Z" stroke="#444444" stroke-width="1.5" stroke-linecap="round" stroke-linejoin="round"/>
    <path d="M18.3538 11.5834V13.9584C18.3538 15.2725 17.293 16.3334 15.9788 16.3334H15.1872C15.1872 15.4625 14.4747 14.75 13.6038 14.75C12.733 14.75 12.0205 15.4625 12.0205 16.3334H8.85384C8.85384 15.4625 8.14134 14.75 7.27051 14.75C6.39967 14.75 5.68717 15.4625 5.68717 16.3334H4.89551C3.58134 16.3334 2.52051 15.2725 2.52051 13.9584V11.5834H11.2288C12.0997 11.5834 12.8122 10.8709 12.8122 10V4.45837H14.2689C14.8389 4.45837 15.3614 4.76713 15.6464 5.25797L17.0001 7.62504H15.9788C15.5434 7.62504 15.1872 7.98129 15.1872 8.41671V10.7917C15.1872 11.2271 15.5434 11.5834 15.9788 11.5834H18.3538Z" stroke="#444444" stroke-width="1.5" stroke-linecap="round" stroke-linejoin="round"/>
    <path d="M7.27083 17.9167C8.14528 17.9167 8.85417 17.2078 8.85417 16.3333C8.85417 15.4589 8.14528 14.75 7.27083 14.75C6.39638 14.75 5.6875 15.4589 5.6875 16.3333C5.6875 17.2078 6.39638 17.9167 7.27083 17.9167Z" stroke="#444444" stroke-width="1.5" stroke-linecap="round" stroke-linejoin="round"/>
    <path d="M13.6038 17.9167C14.4783 17.9167 15.1872 17.2078 15.1872 16.3333C15.1872 15.4589 14.4783 14.75 13.6038 14.75C12.7294 14.75 12.0205 15.4589 12.0205 16.3333C12.0205 17.2078 12.7294 17.9167 13.6038 17.9167Z" stroke="#444444" stroke-width="1.5" stroke-linecap="round" stroke-linejoin="round"/>
    <path d="M18.3542 10V11.5833H15.9792C15.5437 11.5833 15.1875 11.2271 15.1875 10.7917V8.41667C15.1875 7.98125 15.5437 7.625 15.9792 7.625H17.0004L18.3542 10Z" stroke="#444444" stroke-width="1.5" stroke-linecap="round" stroke-linejoin="round"/>
    <path d="M8.06283 4.45829C8.06283 5.40829 7.64325 6.25538 6.98617 6.83329C6.42409 7.32413 5.69574 7.62496 4.89616 7.62496C3.14658 7.62496 1.72949 6.20788 1.72949 4.45829C1.72949 3.46079 2.18866 2.56621 2.91699 1.9883C3.46324 1.55288 4.15199 1.29163 4.89616 1.29163C6.64574 1.29163 8.06283 2.70871 8.06283 4.45829Z" stroke="#444444" stroke-width="1.5" stroke-miterlimit="10" stroke-linecap="round" stroke-linejoin="round"/>
    <path opacity="0.4" d="M5.09408 3.46875V4.65625L4.10449 5.25" stroke="#444444" stroke-width="1.5" stroke-miterlimit="10" stroke-linecap="round" stroke-linejoin="round"/>
</svg>
